Coordinates
version=1
nRows=12
nColumns=42
inDegrees=yes

Units are S.I. units (second, meters, Newtons, ...)
If the header above contains a line with 'inDegrees', this indicates whether rotational values are in degrees (yes) or radians (no).

endheader
time	pelvis_tilt	pelvis_list	pelvis_rotation	pelvis_tx	pelvis_ty	pelvis_tz	hip_flexion_r	hip_adduction_r	hip_rotation_r	knee_angle_r	knee_adduction_r	knee_angle_r_beta	ankle_angle_r	subtalar_angle_r	mtp_angle_r	hip_flexion_l	hip_adduction_l	hip_rotation_l	knee_angle_l	knee_adduction_l	knee_angle_l_beta	ankle_angle_l	subtalar_angle_l	mtp_angle_l	lumbar_extension	lumbar_bending	lumbar_rotation	arm_flex_r	arm_add_r	arm_rot_r	elbow_flex_r	pro_sup_r	wrist_flex_r	wrist_dev_r	arm_flex_l	arm_add_l	arm_rot_l	elbow_flex_l	pro_sup_l	wrist_flex_l	wrist_dev_l
      2.40000000	     -2.15145771	     -2.76183023	     -5.58515414	      1.45101724	      0.87366598	     -0.17948046	     -6.89581468	      0.60737316	     -2.42248043	      6.91705032	     11.52338271	      0.12072530	     16.09483880	      4.02125486	     -7.50153511	     27.66424302	    -14.93229195	     -1.40903408	     27.37970801	     18.77340866	      0.47786605	      1.96138526	    -12.02589193	     -7.50153511	    -12.39613114	      5.15735991	      3.46611269	      3.91347727	    -19.19680431	     -0.87152001	     39.09374315	     90.00000001	      0.00000000	      0.00000000	    -11.42019943	     -7.17568696	     -1.46861770	     23.32221380	     90.00000001	      0.00000000	      0.00000000
      2.41000000	     -2.17157198	     -2.84378221	     -5.68030510	      1.46139333	      0.87214176	     -0.17937890	     -7.70363494	      0.58953208	     -2.26294175	      6.76227905	     11.58195846	      0.11802403	     16.49161268	      4.19665392	     -7.50143037	     27.44340888	    -14.70363862	     -2.09914347	     23.63980480	     18.36989295	      0.41259243	     -0.07116157	    -12.81392168	     -7.50143037	    -12.42111831	      5.23218572	      3.66881155	      3.86455464	    -19.51638093	     -0.65341151	     39.91815287	     90.00000001	      0.00000000	      0.00000000	    -11.44213402	     -6.90917926	     -1.78444355	     22.64805951	     90.00000001	      0.00000000	      0.00000000
      2.42000000	     -2.26218630	     -2.92650798	     -5.82974091	      1.47182104	      0.87049971	     -0.17928418	     -8.32992953	      0.55139487	     -2.22369891	      6.87677186	     11.64498636	      0.12002231	     16.86113017	      4.37823928	     -7.50131343	     27.26243877	    -14.49788588	     -3.32144155	     20.19215053	     17.79812356	      0.35241951	     -1.73861303	    -12.41736512	     -7.50131343	    -12.35231848	      5.31593956	      3.91976363	      3.99355966	    -19.69861677	     -0.63421044	     40.24573088	     90.00000001	      0.00000000	      0.00000000	    -11.66527887	     -6.65175900	     -1.99145094	     22.50066605	     90.00000001	      0.00000000	      0.00000000
      2.43000000	     -2.42861666	     -3.05669177	     -6.05697135	      1.48230030	      0.86878048	     -0.17910193	     -8.80872167	      0.57239961	     -2.12242219	      7.12770039	     11.66101653	      0.12440184	     17.15401611	      4.52525380	     -7.50128740	     27.16234039	    -14.39807660	     -5.11744431	     17.17113011	     17.16979874	      0.29969276	     -2.85217273	    -11.08044531	     -7.50128740	    -12.20954622	      5.43545492	      4.26605498	      4.08188383	    -19.87953621	     -0.63898821	     40.45694473	     90.00000001	      0.00000000	      0.00000000	    -11.91882358	     -6.48831330	     -2.01733665	     22.49045208	     90.00000001	      0.00000000	      0.00000000
      2.44000000	     -2.45861727	     -3.10674343	     -6.18654626	      1.49308996	      0.86721796	     -0.17907151	     -9.53355110	      0.46020846	     -2.10091043	      7.20322359	     11.72509090	      0.12571997	     17.47786673	      4.78375772	     -7.50125068	     26.78119758	    -14.12108400	     -6.55617225	     14.08588168	     16.73570218	      0.24584501	     -3.58513256	     -9.99557551	     -7.50125068	    -12.18648874	      5.46100891	      4.49475505	      4.11397295	    -20.03600081	     -0.64781706	     40.71365635	     90.00000001	      0.00000000	      0.00000000	    -12.10701241	     -6.31379580	     -2.09910918	     22.27925989	     90.00000001	      0.00000000	      0.00000000
      2.45000000	     -2.62663510	     -3.25195150	     -6.43028833	      1.50393376	      0.86552032	     -0.17889822	     -9.99337756	      0.48518919	     -1.87043347	      7.53354023	     11.68715805	      0.13148508	     17.64626831	      4.97856598	     -7.50122950	     26.58659997	    -14.06465981	     -8.22535141	     11.55601075	     16.48354878	      0.20169044	     -3.99913160	     -9.06660114	     -7.50122950	    -11.99610051	      5.60061780	      4.88310201	      4.12240015	    -20.19490765	     -0.66967145	     40.83383443	     90.00000001	      0.00000000	      0.00000000	    -12.32641334	     -6.16932004	     -2.15986596	     22.21930209	     90.00000001	      0.00000000	      0.00000000
      2.46000000	     -2.65844687	     -3.30278673	     -6.56304900	      1.51498636	      0.86400842	     -0.17884590	    -10.66067636	      0.32422848	     -1.80620330	      7.74438619	     11.79484225	      0.13516504	     17.87414900	      5.25245921	     -7.50119811	     26.18806744	    -13.78080445	     -9.47099961	      9.15382114	     16.28400692	      0.15976432	     -3.99606822	     -8.01962603	     -7.50119811	    -11.97217318	      5.59083078	      5.11356821	      4.08058815	    -20.30219733	     -0.72032931	     40.94358263	     90.00000001	      0.00000000	      0.00000000	    -12.50142516	     -6.05310311	     -2.29471122	     22.05669669	     90.00000001	      0.00000000	      0.00000000
      2.47000000	     -2.74271809	     -3.38119264	     -6.74475938	      1.52624265	      0.86243110	     -0.17875247	    -11.18470876	      0.20385880	     -1.76369779	      8.17564252	     11.80946364	      0.14269188	     18.06955236	      5.84949557	     -7.50111192	     25.98590685	    -13.63029789	    -10.94199703	      7.60030995	     16.25590856	      0.13265043	     -3.38825827	     -6.61524788	     -7.50111192	    -11.85766362	      5.62123067	      5.44428282	      3.98764441	    -20.44970694	     -0.85807203	     40.95394845	     90.00000001	      0.00000000	      0.00000000	    -12.66885264	     -5.93899819	     -2.64098184	     21.95584954	     90.00000001	      0.00000000	      0.00000000
      2.48000000	     -2.85789272	     -3.49626011	     -6.93405117	      1.53759814	      0.86089641	     -0.17861731	    -11.64647144	      0.11528722	     -1.39136647	      8.64726421	     11.85834367	      0.15092323	     18.07220772	      5.94550192	     -7.50109737	     25.89995023	    -13.53226985	    -11.97883076	      6.59326985	     16.30754773	      0.11507427	     -2.98361995	     -6.26564081	     -7.50109737	    -11.70746335	      5.68427659	      5.71584089	      3.92944647	    -20.46778728	     -0.87759347	     40.89242312	     90.00000001	      0.00000000	      0.00000000	    -12.90210072	     -5.85621739	     -2.67982977	     21.94330355	     90.00000001	      0.00000000	      0.00000000
      2.49000000	     -2.86838043	     -3.50210643	     -7.04963795	      1.54928322	      0.85947408	     -0.17861303	    -12.21130491	     -0.14050661	     -1.25650766	      9.17289461	     11.93607856	      0.16009721	     18.13909724	      6.40825561	     -7.50100665	     25.82176886	    -13.29672099	    -13.09200306	      6.32122080	     16.33559357	      0.11032612	     -1.83359039	     -4.33984531	     -7.50100665	    -11.63265230	      5.60221527	      5.91942164	      3.86728878	    -20.42953720	     -1.09205838	     40.58688603	     90.00000001	      0.00000000	      0.00000000	    -13.11170230	     -5.81353436	     -2.96058060	     21.99353270	     90.00000001	      0.00000000	      0.00000000
      2.50000000	     -2.95697405	     -3.56905079	     -7.08768561	      1.56106746	      0.85802115	     -0.17865134	    -12.70080790	     -0.27692128	     -0.90467485	      9.66692446	     11.97399060	      0.16871966	     18.04147006	      6.47593486	     -7.50099996	     25.91678753	    -13.11176139	    -13.17459694	      6.41562728	     16.42662055	      0.11197382	     -1.64258199	     -4.28357732	     -7.50099996	    -11.46796958	      5.60342000	      6.01399172	      3.67596044	    -20.45435225	     -1.10506170	     40.52770968	     90.00000001	      0.00000000	      0.00000000	    -13.36697334	     -5.80310487	     -2.97973438	     21.99834016	     90.00000001	      0.00000000	      0.00000000
      2.51000000	     -2.91990636	     -3.44843044	     -7.30053580	      1.57307977	      0.85681965	     -0.17875495	    -13.18686513	     -0.78920323	     -0.42551855	     10.40115128	     12.19644858	      0.18153434	     17.81326151	      6.55510317	     -7.50098482	     25.76945460	    -12.77301460	    -13.14189857	      6.72221205	     16.49751154	      0.11732473	     -1.03686370	     -4.24735399	     -7.50098482	    -11.43167727	      5.36455597	      6.32168071	      3.47817687	    -20.47296189	     -1.17447389	     40.27925998	     90.00000001	      0.00000000	      0.00000000	    -13.52398479	     -5.80468087	     -3.03448682	     22.06844656	     90.00000001	      0.00000000	      0.00000000
